<?xml version="1.0" encoding="iso-8859-1"?>
<!-- Generator: Adobe Illustrator 19.0.0, SVG Export Plug-In . SVG Version: 6.00 Build 0)  -->
<svg version="1.1" id="Layer_1" xmlns="http://www.w3.org/2000/svg" xmlns:xlink="http://www.w3.org/1999/xlink" x="0px" y="0px"
	 viewBox="0 0 512 512" style="enable-background:new 0 0 512 512;" xml:space="preserve">
<polygon style="fill:#A0F6FA;" points="455.736,0 455.736,444.484 399.473,466.989 421.978,0 "/>
<polygon style="fill:#D0FBFD;" points="56.264,0 56.264,512 388.22,512 421.978,455.736 421.978,0 "/>
<polygon style="fill:#FF9269;" points="388.22,67.516 388.22,174.418 354.462,174.418 320.703,120.967 354.462,67.516 "/>
<rect x="123.78" y="67.516" style="fill:#FFB082;" width="230.681" height="106.901"/>
<polygon style="fill:#50D1DD;" points="455.736,444.484 388.22,512 388.22,444.484 421.978,444.484 "/>
<g>
	<path style="fill:#25BBCC;" d="M303.824,385.407H132.22c-4.662,0-8.44-3.779-8.44-8.44s3.778-8.44,8.44-8.44h171.604
		c4.662,0,8.44,3.779,8.44,8.44S308.486,385.407,303.824,385.407z"/>
	<path style="fill:#25BBCC;" d="M379.78,351.648H132.22c-4.662,0-8.44-3.779-8.44-8.44s3.778-8.44,8.44-8.44h247.56
		c4.662,0,8.44,3.779,8.44,8.44S384.442,351.648,379.78,351.648z"/>
	<path style="fill:#25BBCC;" d="M379.78,317.89H132.22c-4.662,0-8.44-3.779-8.44-8.44s3.778-8.44,8.44-8.44h247.56
		c4.662,0,8.44,3.779,8.44,8.44S384.442,317.89,379.78,317.89z"/>
	<path style="fill:#25BBCC;" d="M379.78,284.132H132.22c-4.662,0-8.44-3.779-8.44-8.44s3.778-8.44,8.44-8.44h247.56
		c4.662,0,8.44,3.779,8.44,8.44S384.442,284.132,379.78,284.132z"/>
	<path style="fill:#25BBCC;" d="M379.78,250.374H132.22c-4.662,0-8.44-3.779-8.44-8.44s3.778-8.44,8.44-8.44h247.56
		c4.662,0,8.44,3.779,8.44,8.44S384.442,250.374,379.78,250.374z"/>
	<path style="fill:#25BBCC;" d="M213.802,452.923H132.22c-4.662,0-8.44-3.779-8.44-8.44c0-4.661,3.778-8.44,8.44-8.44h81.582
		c4.662,0,8.44,3.779,8.44,8.44C222.242,449.144,218.464,452.923,213.802,452.923z"/>
</g>
<g>
</g>
<g>
</g>
<g>
</g>
<g>
</g>
<g>
</g>
<g>
</g>
<g>
</g>
<g>
</g>
<g>
</g>
<g>
</g>
<g>
</g>
<g>
</g>
<g>
</g>
<g>
</g>
<g>
</g>
</svg>
