<?xml version="1.0" encoding="iso-8859-1"?>
<!-- Generator: Adobe Illustrator 19.0.0, SVG Export Plug-In . SVG Version: 6.00 Build 0)  -->
<svg version="1.1" id="Layer_1" xmlns="http://www.w3.org/2000/svg" xmlns:xlink="http://www.w3.org/1999/xlink" x="0px" y="0px"
	 viewBox="0 0 512 512" style="enable-background:new 0 0 512 512;" xml:space="preserve">
<rect x="41.216" style="fill:#FD7052;" width="388.557" height="480.394"/>
<rect x="84.878" y="40.751" style="fill:#FFFFFF;" width="301.224" height="394.973"/>
<rect x="235.49" style="fill:#FF4F18;" width="194.279" height="480.394"/>
<rect x="235.49" y="40.751" style="fill:#D9D8DB;" width="150.612" height="394.973"/>
<rect x="168.094" style="fill:#57555C;" width="134.792" height="72.098"/>
<g>
	<rect x="172.274" y="138.126" style="fill:#AEADB3;" width="126.444" height="31.347"/>
	<rect x="172.274" y="196.285" style="fill:#AEADB3;" width="126.444" height="31.347"/>
	<rect x="172.274" y="254.434" style="fill:#AEADB3;" width="126.444" height="31.347"/>
</g>
<g>
	<rect x="235.49" y="138.126" style="fill:#8B8892;" width="63.217" height="31.347"/>
	<rect x="235.49" y="196.285" style="fill:#8B8892;" width="63.217" height="31.347"/>
	<rect x="235.49" y="254.434" style="fill:#8B8892;" width="63.217" height="31.347"/>
</g>
<rect x="235.49" style="fill:#3C3A41;" width="67.396" height="72.098"/>
<path style="fill:#FD7052;" d="M470.784,406.601c0,58.211-47.188,105.399-105.399,105.399c-0.251,0-0.502,0-0.752-0.01
	c-28.474-0.188-54.251-11.682-73.101-30.208c-16.927-16.635-28.265-38.933-30.929-63.844c-0.397-3.72-0.616-7.502-0.616-11.337
	c0-31.587,13.908-59.925,35.913-79.245c0.24-0.209,0.481-0.418,0.721-0.616c8.579-7.398,18.369-13.427,29.017-17.774
	c12.048-4.901,25.203-7.659,38.996-7.743c0.251-0.01,0.502-0.01,0.752-0.01C423.597,301.212,470.784,348.389,470.784,406.601z"/>
<path style="fill:#FF4F18;" d="M470.784,406.601c0,58.211-47.188,105.399-105.399,105.399c-0.251,0-0.502,0-0.752-0.01V301.222
	c0.251-0.01,0.502-0.01,0.752-0.01C423.597,301.212,470.784,348.389,470.784,406.601z"/>
<polygon style="fill:#FFFFFF;" points="386.8,407.63 414.94,435.759 392.767,457.932 364.638,429.792 335.036,459.394 
	312.874,437.222 342.465,407.63 314.336,379.491 336.499,357.328 364.628,385.447 364.638,385.457 394.23,355.865 416.392,378.038 
	"/>
<polygon style="fill:#D9D8DB;" points="386.8,407.63 414.94,435.759 392.767,457.932 364.638,429.792 364.628,429.803 
	364.628,385.447 364.638,385.457 394.23,355.865 416.392,378.038 "/>
<g>
</g>
<g>
</g>
<g>
</g>
<g>
</g>
<g>
</g>
<g>
</g>
<g>
</g>
<g>
</g>
<g>
</g>
<g>
</g>
<g>
</g>
<g>
</g>
<g>
</g>
<g>
</g>
<g>
</g>
</svg>
